<?xml version="1.0" standalone="no"?>
<!DOCTYPE svg PUBLIC "-//W3C//DTD SVG 20010904//EN"
 "http://www.w3.org/TR/2001/REC-SVG-20010904/DTD/svg10.dtd">
<svg version="1.0" xmlns="http://www.w3.org/2000/svg"
 width="500.000000pt" height="500.000000pt" viewBox="0 0 500.000000 500.000000"
 preserveAspectRatio="xMidYMid meet">

<g transform="translate(0.000000,500.000000) scale(0.100000,-0.100000)"
fill="#000000" stroke="none">
<path d="M268 4952 c-74 -57 -162 -158 -203 -233 l-28 -54 99 95 c96 92 192
163 282 209 73 37 56 19 -39 -44 -100 -66 -252 -215 -310 -305 -57 -87 -73
-119 -66 -126 3 -3 68 5 144 20 76 14 147 26 157 26 12 0 -12 -29 -73 -86 -50
-47 -123 -128 -162 -180 -70 -93 -70 -94 -67 -151 l3 -58 43 73 c24 39 45 72
48 72 5 0 -32 -69 -78 -145 -17 -29 -18 -121 -18 -2047 l0 -2018 2500 0 2500
0 0 2019 0 2019 -48 84 c-27 46 -56 97 -66 113 -15 24 -15 26 -1 10 9 -11 37
-55 63 -98 l47 -78 3 56 c3 51 0 61 -34 108 -69 97 -165 205 -226 254 -37 29
-55 49 -46 51 9 2 77 -9 153 -23 76 -14 142 -25 147 -25 18 0 6 30 -44 106
-101 153 -218 266 -379 365 l-64 39 -2087 0 -2087 0 -63 -48z m1118 -47 c150
-50 272 -127 492 -306 72 -60 132 -106 132 -103 0 12 -83 111 -158 188 -76 77
-164 151 -210 175 -42 22 -16 22 39 1 151 -60 166 -69 225 -148 88 -117 254
-300 335 -371 119 -104 123 -107 114 -91 -46 82 -123 182 -295 384 l-35 41 35
-25 c79 -55 192 -152 312 -269 l128 -124 127 123 c124 120 332 294 341 285 2
-2 -28 -39 -67 -82 -109 -117 -300 -378 -245 -332 150 122 313 292 431 451
l66 87 109 46 c60 26 112 45 114 42 2 -2 -21 -21 -52 -41 -95 -63 -281 -253
-329 -336 -5 -8 27 14 70 51 172 141 203 165 298 227 102 67 215 120 302 142
42 10 65 10 139 -3 120 -21 133 -37 30 -37 -115 0 -225 -35 -299 -94 l-30 -24
57 19 c125 42 262 47 486 18 75 -9 95 -16 136 -46 26 -19 46 -36 44 -38 -2 -2
-31 4 -64 15 -75 23 -215 41 -228 29 -6 -6 -4 -9 6 -9 25 0 186 -64 280 -110
158 -79 202 -114 269 -213 33 -49 58 -91 55 -94 -2 -2 -28 14 -57 36 -60 45
-156 87 -221 97 -53 8 -54 9 102 -99 69 -48 138 -97 153 -110 l29 -22 -37
-130 c-21 -72 -39 -132 -42 -134 -9 -10 -72 36 -143 104 -179 172 -387 261
-589 253 -80 -3 -106 -8 -153 -31 -77 -38 -96 -62 -29 -36 115 43 314 12 506
-79 94 -46 206 -113 160 -97 -349 120 -572 93 -743 -90 -93 -99 -102 -96 -103
39 l-1 101 -31 -93 c-17 -51 -36 -91 -41 -89 -11 4 -9 1 -60 110 -22 45 -43
77 -52 77 -8 0 -55 -13 -104 -30 -147 -48 -133 -49 -373 25 l-217 67 -213 -66
c-118 -36 -223 -66 -235 -66 -11 0 -67 16 -123 35 -57 19 -111 35 -121 35 -11
0 -29 -25 -54 -77 -51 -109 -49 -106 -61 -110 -5 -2 -23 40 -40 94 l-31 98 -1
-108 c-1 -85 -4 -109 -16 -113 -10 -4 -41 22 -90 75 -86 90 -143 123 -258 148
-113 24 -294 3 -446 -52 -24 -8 -46 -14 -47 -12 -7 6 143 87 222 121 176 74
351 96 455 57 67 -26 48 -2 -29 36 -44 21 -74 28 -143 31 -203 10 -408 -76
-594 -249 -99 -93 -132 -116 -145 -102 -4 4 -23 60 -40 123 -18 63 -34 120
-36 125 -4 10 83 78 238 185 43 30 76 55 74 58 -3 2 -28 -1 -57 -7 -68 -15
-167 -64 -219 -108 -22 -19 -40 -31 -40 -27 0 10 58 103 97 154 55 73 230 172
421 240 56 20 100 38 97 41 -12 13 -212 -21 -279 -47 -31 -12 -11 12 38 45 39
27 58 32 187 47 165 19 288 14 394 -15 38 -11 71 -18 73 -16 7 7 -76 56 -129
77 -37 14 -86 22 -156 26 -57 2 -101 8 -98 12 2 4 30 12 62 18 32 7 67 13 78
16 46 9 80 5 151 -19z m-1266 -665 c-6 -11 -13 -20 -16 -20 -2 0 0 9 6 20 6
11 13 20 16 20 2 0 0 -9 -6 -20z m2484 -162 l101 -31 -102 -14 c-87 -12 -119
-12 -205 -1 l-103 14 95 31 c52 17 99 31 104 32 5 1 54 -13 110 -31z m-659
-34 l40 -14 -53 5 c-29 3 -60 8 -70 11 -9 2 -3 -2 13 -10 17 -8 40 -15 53 -16
13 0 20 -4 17 -10 -3 -5 -34 -11 -68 -11 -38 -1 -50 -4 -32 -7 l30 -5 -40 -13
c-38 -12 -39 -13 -10 -14 l30 -1 -37 -20 c-38 -19 -52 -34 -23 -23 23 9 18 1
-20 -36 l-35 -34 6 34 c9 51 34 130 55 172 l19 37 42 -16 c24 -8 61 -22 83
-29z m1276 -43 c19 -51 41 -143 35 -148 -1 -2 -18 14 -37 34 -20 21 -27 33
-16 30 30 -11 19 2 -20 22 l-38 20 30 1 c29 1 28 2 -10 14 l-40 13 30 5 c18 3
6 6 -32 7 -34 0 -65 6 -68 11 -3 6 4 10 17 10 13 1 37 8 53 16 17 8 22 12 13
10 -10 -3 -41 -8 -70 -11 l-53 -6 80 29 c92 34 91 35 126 -57z m-792 -26 c46
-7 89 -9 111 -4 20 5 87 13 149 19 146 14 262 0 349 -40 70 -33 165 -121 222
-205 l33 -50 -44 41 c-72 66 -88 72 -34 14 74 -80 131 -158 153 -211 42 -97
72 -259 87 -464 10 -131 -21 -84 -50 79 l-13 71 -2 -50 c-2 -47 -2 -48 -11
-20 -5 17 -18 82 -29 145 l-20 115 6 -84 c3 -46 12 -113 20 -150 18 -83 31
-361 17 -361 -12 0 -39 68 -53 131 -9 40 -9 38 -5 -21 5 -70 -1 -100 -47 -228
-32 -87 -50 -111 -22 -28 28 83 9 59 -30 -37 -20 -50 -46 -103 -57 -117 -16
-22 -16 -17 5 35 13 33 26 78 30 100 5 34 2 31 -18 -23 -13 -35 -27 -66 -30
-70 -4 -3 -4 52 -1 124 l6 129 -25 -80 c-25 -81 -53 -155 -60 -155 -1 0 8 37
21 81 38 134 25 123 -21 -16 -53 -163 -76 -206 -137 -266 -42 -41 -134 -97
-143 -88 -2 2 5 49 15 104 10 55 21 111 24 125 2 14 -5 5 -16 -20 -22 -49
-100 -173 -105 -167 -2 2 5 27 16 55 28 72 24 89 -4 22 -32 -77 -74 -157 -85
-165 -6 -3 1 27 14 66 14 40 23 74 21 76 -5 5 -66 -142 -66 -160 0 -8 -7 -20
-15 -27 -8 -7 -15 -10 -15 -7 0 2 7 21 15 40 8 20 15 44 14 54 0 10 -12 -12
-27 -50 -16 -37 -38 -77 -50 -89 -22 -22 -22 -22 -42 -2 -11 11 -33 51 -50 89
-16 39 -30 62 -30 52 0 -10 7 -34 15 -54 8 -19 15 -38 15 -40 0 -3 -7 0 -15 7
-8 7 -15 19 -15 27 0 18 -61 165 -66 160 -2 -2 7 -37 21 -78 35 -102 8 -72
-50 56 -46 103 -60 116 -25 23 11 -28 18 -53 16 -55 -5 -6 -83 118 -105 167
-11 25 -18 34 -16 20 3 -14 14 -70 24 -125 10 -55 17 -102 15 -104 -9 -9 -101
47 -143 88 -61 60 -84 103 -137 266 -54 163 -59 151 -10 -25 l7 -25 -15 26
c-9 15 -27 65 -41 110 l-26 84 6 -130 c4 -71 3 -127 0 -123 -4 4 -18 35 -31
70 -12 35 -23 59 -23 53 -1 -16 25 -106 43 -150 16 -39 16 -39 -1 -17 -10 12
-36 65 -58 118 -41 98 -61 117 -26 23 11 -29 19 -55 17 -57 -5 -4 -59 135 -80
208 -11 36 -15 75 -11 115 4 55 4 57 -5 20 -16 -61 -42 -125 -51 -125 -14 0
-10 186 7 295 29 192 33 230 33 265 -1 19 -9 -17 -20 -80 -10 -63 -23 -128
-28 -145 -9 -28 -9 -27 -11 20 l-2 50 -13 -71 c-29 -162 -59 -209 -50 -79 15
204 45 366 87 464 22 53 79 131 153 211 54 58 38 52 -34 -14 l-44 -41 33 50
c92 137 222 227 355 244 80 11 226 5 334 -14z m-1041 -77 c23 -6 44 -13 46
-17 4 -6 -65 -29 -322 -107 l-43 -13 -49 67 c-27 37 -50 70 -50 74 0 19 337
16 418 -4z m2640 7 c6 -6 -61 -106 -86 -127 -15 -13 -37 -9 -202 43 -177 55
-184 58 -155 69 17 7 71 16 120 20 91 9 313 5 323 -5z m-3376 -155 c78 -101
285 -330 298 -330 6 0 10 -9 10 -20 0 -20 -1 -20 -47 4 -27 13 -83 49 -125 79
-43 31 -78 53 -78 50 0 -3 18 -30 40 -59 41 -55 97 -104 168 -148 l43 -27 -1
-77 c-3 -211 39 -585 86 -775 14 -55 13 -62 -9 -135 -14 -42 -33 -112 -43
-155 -10 -42 -21 -74 -25 -70 -3 5 -14 42 -24 83 -36 151 -141 430 -162 430
-3 0 -3 -35 1 -77 6 -70 12 -105 32 -193 3 -15 -9 -2 -29 32 -44 72 -101 142
-133 163 -23 15 -22 11 15 -64 56 -110 162 -366 143 -346 -5 6 -40 55 -77 110
-76 112 -185 255 -193 255 -2 0 -2 -37 1 -82 6 -75 5 -80 -10 -66 -8 9 -29 56
-45 105 -33 101 -32 112 9 353 20 117 26 188 29 365 3 155 1 211 -6 190 -6
-16 -31 -147 -55 -290 -25 -143 -47 -267 -50 -275 -6 -22 3 160 26 505 12 194
22 223 108 340 28 38 51 74 51 80 0 5 -9 42 -20 80 -11 38 -20 72 -20 75 0 7
22 -19 92 -110z m994 -62 c-86 -159 -117 -268 -135 -473 -14 -155 -14 -365 -1
-365 6 0 10 3 10 8 0 4 11 25 25 47 l24 40 1 -52 c0 -41 -4 -54 -18 -62 -18
-10 -60 -19 -94 -20 -10 -1 -25 -9 -35 -19 -10 -10 -34 -19 -53 -21 -19 -2
-37 -7 -38 -12 -2 -5 -8 -7 -13 -3 -5 3 -9 1 -9 -5 0 -5 -8 -8 -17 -6 -10 1
-30 -4 -45 -12 -16 -7 -28 -11 -28 -7 0 4 -8 0 -17 -7 -10 -8 -14 -9 -10 -2 4
7 -6 5 -25 -5 -66 -33 -72 -27 -87 86 -25 191 -34 460 -22 661 7 108 15 199
19 203 4 3 142 49 307 100 l300 94 3 -42 c2 -34 -5 -58 -42 -126z m2016 62
l266 -83 9 -86 c22 -236 0 -835 -32 -847 -7 -3 -41 -6 -76 -8 -65 -3 -109 8
-109 28 0 6 -5 4 -10 -4 -9 -13 -10 -13 -10 0 0 13 -1 13 -10 0 -7 -11 -10
-11 -10 -2 0 7 -4 11 -9 7 -5 -3 -17 2 -25 11 -12 11 -16 12 -16 2 0 -10 -3
-9 -10 2 -9 13 -10 13 -10 0 0 -13 -1 -13 -10 0 -5 8 -10 11 -10 6 0 -5 -7 -2
-17 5 -9 8 -29 14 -45 14 -16 0 -32 5 -36 11 -4 6 -19 14 -34 18 -25 6 -28 11
-28 51 0 54 10 57 36 10 10 -19 23 -35 28 -35 13 0 0 376 -18 491 -18 113 -58
230 -121 345 -34 64 -45 95 -45 128 l0 45 43 -13 c23 -7 162 -50 309 -96z
m758 26 l-21 -77 49 -67 c89 -121 99 -148 111 -317 21 -292 33 -527 27 -532
-3 -4 -6 3 -6 15 0 37 -88 526 -100 552 -7 18 -9 -34 -6 -190 3 -173 9 -243
29 -357 43 -238 44 -268 12 -364 -15 -46 -35 -92 -45 -102 -16 -17 -17 -17
-14 10 9 78 10 133 5 133 -10 0 -118 -143 -203 -269 -43 -63 -78 -113 -78
-110 0 14 134 329 160 378 17 30 28 56 26 58 -7 8 -103 -101 -144 -164 -24
-38 -41 -59 -37 -48 14 41 35 182 35 230 -1 46 -2 48 -15 31 -35 -46 -144
-367 -161 -473 -8 -55 -20 -55 -27 0 -3 23 -21 94 -39 158 l-34 116 23 104
c45 213 74 480 74 686 l-1 122 49 29 c26 17 65 45 86 63 42 37 115 126 115
140 0 5 -26 -11 -58 -35 -74 -57 -192 -121 -192 -106 0 7 41 55 91 107 96 101
212 237 268 315 19 27 36 46 38 44 2 -2 -6 -38 -17 -80z m-2813 -678 c-3 -8
-6 -5 -6 6 -1 11 2 17 5 13 3 -3 4 -12 1 -19z m1790 0 c-3 -8 -6 -5 -6 6 -1
11 2 17 5 13 3 -3 4 -12 1 -19z m-2304 -935 c-21 -61 -28 -41 -12 34 10 48 13
54 20 36 5 -14 2 -39 -8 -70z m2834 5 c6 -32 7 -58 4 -58 -10 0 -36 94 -33
114 6 30 19 5 29 -56z m-1847 -303 l0 -155 55 0 55 0 0 -55 0 -55 -110 0 -110
0 0 210 0 210 55 0 55 0 0 -155z m280 -55 l0 -210 -55 0 -55 0 0 210 0 210 55
0 55 0 0 -210z m294 194 c25 -24 28 -51 24 -214 -4 -190 -4 -190 -139 -190
-131 0 -129 -3 -129 210 0 214 -3 210 134 210 73 0 98 -4 110 -16z m228 -62
l36 -77 1 78 1 77 55 0 55 0 0 -210 0 -210 -53 0 -53 0 -39 78 -40 77 -3 -77
-3 -78 -54 0 -55 0 0 210 0 210 58 0 57 0 37 -78z m-882 -577 c0 -68 2 -75 20
-75 18 0 20 7 20 75 l0 75 55 0 55 0 0 -210 0 -210 -55 0 -55 0 0 81 c0 71 -2
80 -17 77 -15 -3 -18 -16 -21 -81 l-3 -77 -54 0 -55 0 0 210 0 210 55 0 55 0
0 -75z m470 20 l0 -55 -75 0 c-68 0 -75 -2 -75 -20 0 -18 7 -20 55 -20 l55 0
0 -54 0 -55 -52 -3 c-46 -3 -53 -6 -56 -25 -3 -22 0 -23 72 -23 l76 0 0 -55 0
-55 -130 0 -130 0 0 210 0 210 130 0 130 0 0 -55z m302 38 c16 -14 18 -35 18
-210 l0 -193 -55 0 -55 0 0 40 c0 33 -3 40 -20 40 -17 0 -20 -7 -20 -40 l0
-40 -55 0 -55 0 0 194 c0 164 3 197 16 210 23 23 200 23 226 -1z m320 0 c16
-14 18 -34 18 -194 0 -219 7 -209 -152 -209 l-108 0 0 210 0 210 112 0 c90 0
115 -3 130 -17z"/>
<path d="M2350 3941 c75 -47 79 -65 4 -24 -63 35 -75 38 -146 38 -44 0 -82 -5
-88 -11 -9 -9 -4 -10 17 -7 16 2 3 -6 -30 -21 -68 -28 -78 -36 -51 -36 14 -1
10 -4 -11 -14 -34 -15 -77 -56 -81 -77 -1 -8 -6 -23 -10 -33 -7 -17 -4 -18 25
-13 l33 7 -39 -44 c-48 -54 -103 -160 -102 -195 0 -23 2 -21 15 13 8 22 17 42
21 45 3 3 3 -2 0 -12 -8 -21 -37 -250 -37 -282 1 -15 6 -11 20 17 11 20 23 39
27 41 5 3 8 -45 9 -107 0 -61 6 -142 13 -181 14 -77 60 -191 72 -178 4 4 9 28
11 53 l3 45 63 -111 c35 -61 85 -138 110 -170 l46 -59 12 55 c7 30 12 46 13
34 1 -28 32 -116 38 -110 3 2 -3 30 -12 61 -9 32 -15 58 -13 60 2 1 50 -82
108 -186 58 -104 107 -189 110 -189 3 0 52 85 110 189 58 104 106 187 108 186
2 -2 -4 -27 -12 -56 -9 -29 -16 -57 -16 -63 1 -22 24 31 36 79 l11 50 9 -55 9
-55 47 59 c25 32 75 109 110 170 l63 111 5 -47 c3 -26 8 -50 11 -53 10 -9 57
107 69 170 6 33 14 114 18 180 l7 120 22 -40 c16 -28 22 -34 22 -20 1 35 -27
259 -35 280 -4 11 -4 17 0 13 4 -3 14 -24 21 -45 12 -33 14 -34 15 -12 0 36
-53 138 -101 192 l-40 46 37 -6 36 -6 -17 26 c-9 14 -15 29 -13 32 5 10 -45
57 -77 71 -21 10 -25 13 -11 14 27 0 17 8 -51 36 -33 15 -46 23 -30 21 21 -3
26 -2 17 7 -6 6 -44 11 -88 11 -70 0 -83 -3 -147 -38 -67 -36 -69 -36 -36 -8
19 17 48 37 65 45 17 9 25 16 18 16 -25 0 -89 -39 -120 -75 l-32 -36 -17 36
c-9 19 -20 35 -23 35 -3 0 -14 -16 -23 -35 l-17 -36 -32 36 c-17 20 -48 45
-69 56 -56 28 -61 23 -9 -10z m-20 -156 c27 -20 50 -33 50 -29 0 5 19 -10 41
-31 41 -40 45 -31 6 13 -32 34 -12 26 33 -14 l40 -36 40 36 c45 40 65 48 33
14 -39 -44 -35 -53 6 -13 22 21 41 36 41 31 0 -4 23 9 50 29 34 25 64 38 93
41 39 3 40 3 9 -5 -52 -14 -46 -17 21 -15 34 2 54 1 44 -2 -14 -4 -3 -13 41
-34 32 -15 62 -35 65 -44 5 -14 3 -15 -13 -6 -35 19 -45 10 -12 -11 32 -21 41
-50 23 -78 -6 -10 -10 -10 -16 -1 -4 7 -28 25 -53 41 -35 22 -57 29 -91 28
l-46 -1 40 -8 c39 -8 95 -27 95 -32 0 -2 -24 -2 -53 0 -46 3 -58 0 -85 -22
l-31 -27 -3 23 c-3 16 -11 1 -27 -50 -13 -40 -20 -79 -17 -88 9 -22 86 -54
131 -53 33 1 36 2 15 8 -24 7 -24 7 7 14 37 7 83 34 83 48 0 5 -12 2 -27 -8
-22 -14 -19 -7 16 32 57 65 55 63 48 44 -3 -9 3 -29 14 -45 13 -20 18 -45 18
-79 -2 -49 -2 -49 -10 -15 -5 22 -6 6 -2 -45 7 -103 6 -116 -8 -129 -9 -8 -10
-8 -5 2 16 27 -11 10 -28 -19 -24 -40 -32 -30 -10 13 14 28 15 31 1 20 -13
-11 -16 -10 -19 5 -3 11 -10 -1 -20 -32 -10 -31 -18 -44 -22 -35 -3 8 -13 33
-21 55 -15 38 -14 28 1 -42 5 -23 2 -21 -16 12 -32 58 -126 176 -99 125 7 -14
14 -36 15 -50 2 -14 6 -48 10 -77 7 -58 -17 -151 -45 -177 -15 -14 -20 -13
-48 4 -18 10 -40 31 -49 45 l-17 26 62 55 61 56 -17 30 c-29 49 -61 78 -85 77
-21 0 -22 -1 -3 -8 17 -7 15 -10 -18 -26 -37 -17 -38 -17 -52 1 -15 19 -15 19
-30 0 -14 -18 -15 -18 -52 -1 -33 16 -35 19 -18 26 19 7 18 8 -3 8 -24 1 -56
-28 -85 -77 l-17 -30 61 -56 62 -55 -17 -26 c-9 -14 -31 -35 -49 -45 -28 -17
-33 -18 -48 -4 -27 25 -53 126 -45 181 4 26 8 59 10 73 1 14 8 36 15 50 27 51
-67 -67 -99 -125 -18 -33 -21 -35 -16 -12 15 67 14 78 -2 30 -9 -29 -19 -53
-22 -53 -3 0 -12 21 -19 48 -9 30 -16 40 -18 29 -4 -15 -7 -16 -20 -5 -14 11
-13 8 1 -20 22 -43 14 -53 -10 -13 -12 21 -20 27 -26 19 -13 -22 -25 33 -17
76 5 23 8 61 7 86 -1 45 -1 45 -8 10 -7 -33 -7 -33 -9 15 0 34 5 59 18 79 11
16 17 36 14 45 -7 19 -9 21 48 -44 39 -43 40 -47 14 -31 l-30 19 24 -26 c13
-15 40 -30 60 -34 34 -6 35 -7 11 -14 -21 -6 -18 -7 15 -8 47 -1 122 31 132
55 3 9 -4 49 -17 88 -20 62 -24 68 -31 46 -4 -14 -7 -19 -8 -13 -2 23 -61 45
-112 41 -27 -1 -49 -2 -49 0 0 5 55 24 95 32 l40 8 -46 1 c-34 1 -56 -6 -91
-28 -25 -16 -49 -34 -53 -41 -6 -9 -10 -9 -16 1 -18 28 -9 57 24 78 33 21 22
30 -14 10 -18 -9 -19 -8 -7 10 7 11 37 31 66 45 41 18 50 25 36 30 -11 3 9 4
43 2 67 -2 73 1 21 15 -31 8 -30 8 9 5 29 -3 59 -16 93 -41z m-330 31 c0 -2
-8 -10 -17 -17 -16 -13 -17 -12 -4 4 13 16 21 21 21 13z m370 -31 c25 -30 3
-25 -26 6 -22 24 -24 29 -8 21 11 -6 27 -18 34 -27z m285 5 c-16 -16 -31 -27
-34 -24 -6 6 45 54 56 54 4 0 -6 -13 -22 -30z m366 13 c13 -16 12 -17 -3 -4
-17 13 -22 21 -14 21 2 0 10 -8 17 -17z m-719 -234 c45 -47 40 -64 -16 -54
-42 8 -93 40 -114 73 -14 22 -14 22 38 22 49 0 56 -3 92 -41z m526 19 c-21
-33 -72 -65 -114 -73 -56 -10 -61 7 -16 54 36 38 43 41 92 41 52 0 52 0 38
-22z m-562 -305 c-8 -15 -15 -25 -16 -21 0 12 23 58 27 54 3 -2 -2 -17 -11
-33z m468 21 c3 -8 2 -12 -4 -9 -6 3 -10 10 -10 16 0 14 7 11 14 -7z m-178
-318 c55 -22 60 -27 75 -72 l17 -48 16 32 c9 18 21 32 27 32 11 0 5 -10 -30
-52 -10 -13 -18 -15 -26 -8 -9 7 -16 5 -26 -6 -17 -21 -83 -54 -109 -54 -26 0
-92 33 -109 54 -10 11 -17 13 -26 6 -8 -7 -16 -5 -26 8 -35 42 -41 52 -30 52
6 0 18 -15 27 -32 l17 -33 16 49 c15 45 20 50 71 71 30 13 55 24 56 24 0 1 27
-10 60 -23z m-200 -53 c-6 -15 -9 -15 -16 -3 -6 9 -5 17 3 22 16 10 21 2 13
-19z m307 1 c-6 -17 -23 -9 -23 11 0 8 6 12 14 9 8 -3 12 -12 9 -20z"/>
<path d="M1691 3014 c0 -11 3 -14 6 -6 3 7 2 16 -1 19 -3 4 -6 -2 -5 -13z"/>
<path d="M3301 3014 c0 -11 3 -14 6 -6 3 7 2 16 -1 19 -3 4 -6 -2 -5 -13z"/>
<path d="M2330 2533 c1 -5 12 -28 26 -53 13 -25 22 -34 18 -20 -12 45 -45 101
-44 73z"/>
<path d="M2647 2513 c-27 -52 -28 -79 -2 -30 15 27 24 51 21 54 -2 3 -11 -8
-19 -24z"/>
<path d="M2522 1813 c3 -84 6 -98 21 -101 15 -3 17 7 17 97 0 95 -1 101 -20
101 -20 0 -21 -5 -18 -97z"/>
<path d="M2640 1270 c0 -53 2 -60 20 -60 18 0 20 7 20 60 0 53 -2 60 -20 60
-18 0 -20 -7 -20 -60z"/>
<path d="M2960 1230 c0 -93 1 -100 20 -100 19 0 20 7 20 100 0 93 -1 100 -20
100 -19 0 -20 -7 -20 -100z"/>
<path d="M4597 4961 c98 -52 206 -134 299 -228 77 -78 80 -74 17 25 -43 68
-112 143 -185 198 -55 43 -58 44 -130 44 l-73 -1 72 -38z"/>
</g>
</svg>
